<svg id="レイヤー_1" data-name="レイヤー 1" xmlns="http://www.w3.org/2000/svg" viewBox="0 0 1326.75 398.28"><defs><style>.cls-1,.cls-4{fill:#92cda8;stroke:#009844;}.cls-1,.cls-2,.cls-3,.cls-4,.cls-5,.cls-6,.cls-7{stroke-miterlimit:10;}.cls-1{stroke-width:3px;}.cls-2,.cls-3{fill:#c9e099;}.cls-2{stroke:#fff;stroke-width:6px;}.cls-3{stroke:#92cda8;stroke-width:10px;}.cls-5{font-size:103.67px;font-family:MonotypeCorsiva, Monotype Corsiva;}.cls-5,.cls-6,.cls-7{fill:#fff;stroke:#c9e099;}.cls-7{font-size:52.29px;font-family:KozGoPr6N-Regular-83pv-RKSJ-H, Kozuka Gothic Pr6N;}.cls-8{fill:#000432;}</style></defs><circle class="cls-1" cx="199.14" cy="199.14" r="197.64"/><circle class="cls-2" cx="199.14" cy="199.14" r="127.1"/><ellipse class="cls-3" cx="260.09" cy="254.56" rx="50.84" ry="35.43" transform="translate(-92.04 73.77) rotate(-23.45)"/><path class="cls-4" d="M153.13,310.79,124.31,192c-2.15-6.18,161.94-6.88,159.83-.68l-26.9,119c-2.39,7-7.12,11.41-12.29,11.43l-79.47.34C160.31,322.14,155.55,317.77,153.13,310.79Z" transform="translate(-12.22 -50.76)"/><text class="cls-5" transform="translate(147.59 223.12) scale(1.78 1)">J</text><path class="cls-6" d="M45.88,200.19l2.25,6.65a8.62,8.62,0,0,1-3.71,0q-5.87-1.31-7.87-9t.52-19.08L37.7,176q4.84,2.77,6.56,3.49l17.36,7.18q7.73,3.22,10.12,9.48a26.64,26.64,0,0,1,.82,15.65q-1.8,8.11-7.66,10.65l-1.5-6.36q6.23-.51,8.06-8.8,1.14-5.1-.77-8.23c-1.26-2.1-3.79-3.91-7.58-5.46l-24.21-10-.25,1.11Q35.33,199.61,41.58,201A6.18,6.18,0,0,0,45.88,200.19Z" transform="translate(-12.22 -50.76)"/><path class="cls-6" d="M67.29,164.82l1.21,5.63a14.09,14.09,0,0,1-3.68-1.57,13,13,0,0,1-6.43-9.72q-.82-6.27,3.44-13.18l2-3.17a46.59,46.59,0,0,0,7.07,8.76,50.25,50.25,0,0,0,9,7.24q9,5.53,12.37.05,2.28-3.69.1-8.16t-8.67-9.39c-2-1.49-3.26-2.47-3.86-2.94l-7.63-6,.42-5.69a75.39,75.39,0,0,0,7.91,7l6.47,5.06,2.31,1.76,2.84,2.16a34.66,34.66,0,0,0,2.85,2q2.17,1.34,3.19-.31a6.66,6.66,0,0,0,.78-3.57l.31.1a2.28,2.28,0,0,1,.44.21c.42.26.57.9.45,1.93l-.16,1.67L99,153l-6.75-5.29q4.39,9.12,1.08,14.49-4.53,7.35-15.73.45a49.41,49.41,0,0,1-14-13.68l-1.13,1.83q-5.57,9,.41,12.73A9.34,9.34,0,0,0,67.29,164.82Z" transform="translate(-12.22 -50.76)"/><path class="cls-6" d="M106.71,120.4l-1,5.67a13.9,13.9,0,0,1-5.2-14.16,17.62,17.62,0,0,1,7.22-10.47q1-.7,1.77-1.17c.35-.21.58-.36.69-.44l.26-.2c.28.41.49.71.62.88q2.33,3.18,10.26,8.18l2.65,1.67,1.79,1.19,2.34,1.58q1.86,1.23,3.53,2.56l-.22-2.55c-.26-2.83-.52-5.39-.76-7.68l-.54-5-.55-4-.64-4.85c-.05-.44-.18-1.34-.37-2.7l2.16-5.42a94.46,94.46,0,0,0,7.73,13.3l4.67,6.93,1.79,2.58a16.51,16.51,0,0,0,3.52,3.9,2.16,2.16,0,0,0,2.53-.32,9.79,9.79,0,0,0,2.31-2.33.91.91,0,0,1,.5.29q.51.69-.66,2l-.9,1.07-5,5.5c-1-1.24-1.92-2.41-2.72-3.49a207.73,207.73,0,0,1-12.75-19.34c.08,4.08.26,7.31.52,9.69l.33,3a73.33,73.33,0,0,0,2.08,11.43L134,123q-3.15-3.67-11.1-8.67l-2.33-1.49c-.29-.16-1-.59-2.07-1.26a41.75,41.75,0,0,1-5.75-4.15l5.8,11.42a32.45,32.45,0,0,1,3,7.36,7.58,7.58,0,0,1-.82,4.8l5.43-3.4-.83,4.34-9.12,6,.79-4.5,2.47-1.5a7,7,0,0,0,.12-3.89,44.77,44.77,0,0,0-3-6.89l-8.14-16.29-1,.71q-8.57,6.29-4.41,12A9.11,9.11,0,0,0,106.71,120.4Z" transform="translate(-12.22 -50.76)"/><path class="cls-6" d="M170.2,85.89l-2.9,5a14,14,0,0,1-1.66-3.64,13,13,0,0,1,1.79-11.52q3.6-5.17,11.41-7.43l1.94-.56q.51,5.94.85,7.94l2.12,12.39.47,2.81a11.84,11.84,0,0,1-.06,5.47,11.25,11.25,0,0,1-3.31,4.22l7.21-1.68-2.12,3.69-12.1,2.9,2.26-3.95,2.76-.47q2.46-2.76,1.46-8.79l-.42-2.46-3-17.72-.76.22q-10.22,2.94-8.28,9.68A9.27,9.27,0,0,0,170.2,85.89Z" transform="translate(-12.22 -50.76)"/><path class="cls-6" d="M258.37,96.6a.87.87,0,0,1,.42.91c-.21,1.1-1.5,2.37-3.87,3.79a17.41,17.41,0,0,1-12.56,2.36,10.57,10.57,0,0,1-7.71-5.44q-2.42-4.43-1.19-10.87a22,22,0,0,1,8.84-14.3,19.67,19.67,0,0,1,15.81-3.43A28.09,28.09,0,0,1,267,73.05l-2.38,3.37-.68,1c-.57.77-1.14,1.11-1.73,1a2.7,2.7,0,0,1-.51-.17,3.23,3.23,0,0,0,.59-1.21c.22-1.11-.35-2.23-1.69-3.35a10.75,10.75,0,0,0-5-2.24,12.32,12.32,0,0,0-10.87,2.93q-4.75,4.11-6.23,11.85-1.14,6,.86,10.07a8.7,8.7,0,0,0,6.51,4.92,12.53,12.53,0,0,0,6.83-.71A12.8,12.8,0,0,0,258.37,96.6Z" transform="translate(-12.22 -50.76)"/><path class="cls-6" d="M287.22,95.89l-5.49.87a14.66,14.66,0,0,1,2.16-4.93,12,12,0,0,1,10.35-5.24q5.64,0,14.77,6.32c1,.72,1.92,1.37,2.68,2,2.06,1.65,3.12,2.49,3.18,2.53l1.47,1q-3.42,1.42-8.85,9.2l-.74,1.11-1.59,2.46a47.58,47.58,0,0,0-5.12,9.62,8.21,8.21,0,0,0-.76,2.83,2.05,2.05,0,0,0,1,1.47,6.82,6.82,0,0,0,2.91,1,1.88,1.88,0,0,1-.26.69q-.36.53-1.44.33l-1.32-.21-6.72-1.35A54.53,54.53,0,0,1,299.15,113h-2.37l-7-4.91q-5.36,3.55-10.16,3.31l4.19,3.23-3.93.82-8.15-6.13,4.54-.57,2,1.59a10.37,10.37,0,0,0,4.47-1.25,82.48,82.48,0,0,0,8.12-5.24l1.83-1.3a40.33,40.33,0,0,1,9-5.09,16.12,16.12,0,0,1,7.49-.65,47.12,47.12,0,0,0-6.51-5.44q-9.28-6.47-13.65-.21A10.2,10.2,0,0,0,287.22,95.89Zm12.69,16q2.25-3.84,3.82-6.1c.54-.76,1-1.38,1.35-1.85l1.86-2.31a32.66,32.66,0,0,1,3.12-3.48q-5.85-.36-13.89,5.54l-2.67,2-1.32.85Z" transform="translate(-12.22 -50.76)"/><path class="cls-6" d="M333.87,141.1l3.92,3.83a46.08,46.08,0,0,0,6.09,5q-4.68.47-6.58-1.4L335.78,147,334,145.19l-1.38-1.42-1-.93-1.43,1.21-1.76,1.43a12,12,0,0,1-4.76,2.64,11.09,11.09,0,0,1-5.33-.8l4.77,5.2-4.25,0-8.25-8.85,4.57,0,1.75,2.15c2.41.51,5.19-.51,8.37-3.08l1.95-1.59,14.15-11.59-.62-.6q-3.54-3.46-7-4a6.47,6.47,0,0,0-5.9,2,9.24,9.24,0,0,0-2.2,3.92l-5.74,0a14,14,0,0,1,14.64-7.3q5.35.74,11.06,6.33l6.05,5.91q3.39,3.31,7.16,6.51l-5.13,2.32-.95.4c-1,.42-1.75.4-2.23-.07a3.53,3.53,0,0,1-.25-.28,9.58,9.58,0,0,0,1.64-1.25,2,2,0,0,0,.2-2.76,55,55,0,0,0-6.05-6.5l-1.76-1.72Z" transform="translate(-12.22 -50.76)"/><path class="cls-6" d="M358.6,173.32l-5.38-2a13.85,13.85,0,0,1,16.24-1.86q4.79,2.52,8.25,9.75l3.64,7.6q2.06,4.27,4.52,8.59l-5.63.41-1,0c-1.1,0-1.79-.22-2.07-.82a2.73,2.73,0,0,1-.14-.33,10.19,10.19,0,0,0,2-.63,2,2,0,0,0,1.13-2.52,53.73,53.73,0,0,0-3.45-8.17l-1.08-2.24-11.76,4.12,2.16,4.5a65.65,65.65,0,0,0,3.69,6.76q-4.41-1.12-5.7-3.8-.72-1.52-1.81-4.36c-.31-.78-.54-1.32-.69-1.63l-.27-.56-2.1.74a19.16,19.16,0,0,1-6.92,1.44A12.66,12.66,0,0,1,346.5,186l2,5.23.8,2.14c.58,1.5,1.36,3.25,2.33,5.27a13,13,0,0,0,7.34,6.92,1.46,1.46,0,0,1-.64.79c-.43.2-1.71-.19-3.83-1.2a13.48,13.48,0,0,1-6.69-6.45q-1.89-3.93-4.76-11.65l-3.32-9c-.13-.3-.56-1.36-1.31-3.19l5.2,2.68c.47,1.65,1.11,3.58,1.94,5.81a5.87,5.87,0,0,0,3.94,1.85,25.73,25.73,0,0,0,7.1-1.8l17.16-6-.38-.8c-1.43-3-3.15-5-5.18-6.11a6.55,6.55,0,0,0-6.27-.1A9.21,9.21,0,0,0,358.6,173.32Z" transform="translate(-12.22 -50.76)"/><text class="cls-7" transform="translate(10.82 218.77)">★</text><text class="cls-7" transform="translate(334.67 217.91)">★</text><path class="cls-6" d="M70.23,362.59l5.08-.13q-2.22,6,3.44,9.19a7.72,7.72,0,0,0,5.37,1.07,5.56,5.56,0,0,0,3.95-2.85q1.83-3.21-.26-8.6l-1.45-3.71a29.25,29.25,0,0,1-1.94-6.67,6.8,6.8,0,0,1,.89-4.1,8.56,8.56,0,0,1,6.33-4.35,13,13,0,0,1,8.7,1.8,16.08,16.08,0,0,1,5.72,5.49l-3,2.22-1.32,1c-.77.59-1.37.75-1.81.5a1.23,1.23,0,0,1-.48-.56,7.07,7.07,0,0,0,1.43-1.64,3.17,3.17,0,0,0-.2-3.27,8.38,8.38,0,0,0-3.33-3.17c-3.49-2-6.06-1.54-7.7,1.35a5.4,5.4,0,0,0-.54,3.65A43.84,43.84,0,0,0,91.47,357l1.14,3q2.2,5.67.12,9.34a9.5,9.5,0,0,1-7.24,4.79,15.43,15.43,0,0,1-10-2.16Q69.24,368.41,70.23,362.59Z" transform="translate(-12.22 -50.76)"/><path class="cls-6" d="M107.87,385.53c.24.48.29.83.15,1-.33.52-1.6,1.14-3.82,1.86q-4.5,1.49-6.65.1-1.58-1-.24-3.09c.38-.58,1.75-2.25,4.11-5l4.59-5.31,1.16-1.34.93-1.07a12.2,12.2,0,0,0,.92-1.2c.46-.72.49-1.2.09-1.46q-1.68-1.06-6,1.37a1.18,1.18,0,0,1,.06-1q.84-1.31,4.68-2c2.55-.45,4.31-.36,5.27.25s1.14,1.78.19,3.27c-.19.29-.62.84-1.3,1.65L110.94,375l-1.35,1.59-4.82,5.57-1.09,1.24a28.48,28.48,0,0,0-2,2.55q-.59.91-.06,1.26Q103.39,388.34,107.87,385.53Zm6.65-19.84,4.66-3.3a12.5,12.5,0,0,0,5.7-.19,1.21,1.21,0,0,1-.18.76Q122.85,365.84,114.52,365.69Z" transform="translate(-12.22 -50.76)"/><path class="cls-6" d="M121.26,401.31l-4.12-.25.38-.61,1-1.62,1-1.52,6.33-10.1.73-1.15c.54-.91,1-1.65,1.24-2.24q.7-1.47,0-1.83c-1.15-.55-3,.16-5.59,2.13-.21-.46-.27-.8-.16-1q.66-1.38,4.33-2.55t5.12-.47c1.32.63,1.57,1.8.76,3.48-.21.43-.52,1-.94,1.67L130.19,387l-.94,1.47-1,1.55a33.6,33.6,0,0,1,9.16-3.83q4.5-1.08,6.78,0c1.49.71,1.74,2.11.74,4.17a26.43,26.43,0,0,1-1.6,2.71l-5.38,8a32.17,32.17,0,0,0-2.34,3.88c-.38.8-.35,1.3.08,1.51q1.59.76,5.94-2.33c.26.41.33.74.21,1-.48,1-2,1.89-4.45,2.69s-4.28.93-5.35.41-1.39-1.72-.56-3.44a43.53,43.53,0,0,1,3-5l3.49-5.18a35.22,35.22,0,0,0,2.46-4.11q.87-1.81-.39-2.43c-2-.94-4.59-.57-7.89,1.13a19.07,19.07,0,0,0-7.65,6.87Z" transform="translate(-12.22 -50.76)"/><path class="cls-6" d="M171.27,397.84l-3.88,2.37a10.25,10.25,0,0,0-3.43-2.06,6,6,0,0,0-5.9,1,13.66,13.66,0,0,0-4.34,6.73,10,10,0,0,0-.49,5.74,4.19,4.19,0,0,0,2.76,3.18q3.6,1.23,7.26-2.78a1.76,1.76,0,0,1,.16,1.27q-.69,2-4.65,3.39t-6.58.49a5.31,5.31,0,0,1-3.43-3.43,8.63,8.63,0,0,1,.18-5.78,18.35,18.35,0,0,1,8.15-9.92q6-3.67,11.19-1.9A7.89,7.89,0,0,1,171.27,397.84Z" transform="translate(-12.22 -50.76)"/><path class="cls-6" d="M189,416.45a1.27,1.27,0,0,1,.35,1.16c-.14.51-.89,1.24-2.28,2.19q-5.52,3.75-9.64,2.65a5.29,5.29,0,0,1-3.61-3.1,8.08,8.08,0,0,1-.26-5.55q1.5-5.62,7.3-10.24t10-3.51c2,.54,2.72,1.88,2.15,4-.65,2.42-2.45,4.46-5.41,6.14a19.73,19.73,0,0,1-9.86,2.51q-1.1,6.06,3.1,7.18T189,416.45Zm-10.4-6.69a4.52,4.52,0,0,0,1.24.6,8.49,8.49,0,0,0,5.86-.45,5.76,5.76,0,0,0,3.47-3.77q.76-2.89-2.17-3.67-2.12-.57-4.51,1.5A14.85,14.85,0,0,0,178.55,409.76Z" transform="translate(-12.22 -50.76)"/><path class="cls-6" d="M241.13,424l1.93-4.53a25.31,25.31,0,0,0,9-10.13,14.13,14.13,0,0,0,.87-11,7,7,0,0,0-3.77-4.21,7.41,7.41,0,0,0-5.78-.14,11.61,11.61,0,0,0-6.1,5.55,2.93,2.93,0,0,1-.49-.67c-.36-1,.57-2.57,2.79-4.76a18.46,18.46,0,0,1,6.47-4.42,8.36,8.36,0,0,1,6.27.22,7.07,7.07,0,0,1,4.17,4.21q1.41,3.91-1,10.75a41.79,41.79,0,0,1-7.22,12.76l15.18-4.49-1.79,4.36Z" transform="translate(-12.22 -50.76)"/><path class="cls-6" d="M275.18,409.27a23.44,23.44,0,0,1-5.42-15.09q-.13-8.73,5-13a6.8,6.8,0,0,1,6.18-1.47,11.88,11.88,0,0,1,6.43,4.32,22.63,22.63,0,0,1,5.12,14.85q0,8.76-5,12.94a6.9,6.9,0,0,1-6.1,1.46A11,11,0,0,1,275.18,409.27Zm11.06-19.64a13.33,13.33,0,0,0-6.58-4.66,6.37,6.37,0,0,0-6.08,1.19q-2.91,2.43-2.22,7.43a19.22,19.22,0,0,0,4.58,9.68,13.56,13.56,0,0,0,6.63,4.74,6.36,6.36,0,0,0,6.09-1.2q2.91-2.43,2.21-7.44A19.41,19.41,0,0,0,286.24,389.63Z" transform="translate(-12.22 -50.76)"/><path class="cls-6" d="M311.38,393.55,299,372.78a50.93,50.93,0,0,1-1.67,5l-1.2,3.15-.28.71-1.42-2.41a50.49,50.49,0,0,0,5.33-12.7l14.75,24.68,5.4-4-.74,3.38-12.47,9.31.79-3.41Z" transform="translate(-12.22 -50.76)"/><path class="cls-6" d="M329.33,383.85l-.18-4.69a19.29,19.29,0,0,0,5.53-4.1,9.27,9.27,0,0,0,2.58-5.84,6.11,6.11,0,0,0-2.18-5,6.67,6.67,0,0,0-6.48-1.35,15.13,15.13,0,0,0-7.31,5,23.61,23.61,0,0,0-1.48,1.91l-7.35-9.09-.26-5.44L322,344l.14,4.41-8,9.08,5.34,6.78q9.29-9.31,15.38-4a10.75,10.75,0,0,1,3.51,8.94,16,16,0,0,1-4.19,10.24A21.86,21.86,0,0,1,329.33,383.85Z" transform="translate(-12.22 -50.76)"/><path class="cls-8" d="M494.62,226.73l-13.85,14.15a52.34,52.34,0,0,1-2-14.06q0-23.4,16.29-37.54t43.27-14.15h6.71q-3.83,20.76-4.59,27.93L533,275.16q-3.4,32.1-16.3,46.52Q502.12,338,481.84,338q-19.18,0-27.84-20.13l13.59-11.07Q471.84,330,491.46,330q12.06,0,18.18-9.89t8.49-33.46L528.57,186.1h-2.63q-35.33,0-35.32,24.94A34.42,34.42,0,0,0,494.62,226.73Z" transform="translate(-12.22 -50.76)"/><path class="cls-8" d="M569.66,231.53,558,247a73.53,73.53,0,0,1-1.65-15.37q0-25.56,13.79-41t36.63-15.46h10.49q-6.47,17.24-10.56,41.2a264.75,264.75,0,0,0-4.1,44.37q0,41,18.11,41,12.23,0,19.7-16.29t9.7-47.79q1-14.35,1.35-18.72l3-37.34,14.24-10.2a392.53,392.53,0,0,0-5,40.34L661,243.42c-.1,1.12-.36,4.86-.79,11.2l-1,13.78q-.57,7.83-.58,13.48,0,9.9,5.46,9.91,4.32,0,9.7-4.66c.1.53.17.92.22,1.19a17.85,17.85,0,0,1,.14,1.88c0,1.92-1.32,3.73-4,5.45L666,298.53,644.82,312.4l2.7-33.1q-15.37,33.1-33.11,33.1-24.28,0-24.28-51.1,0-34.56,12.07-74.18h-6q-29.88,0-29.88,27.26A46.61,46.61,0,0,0,569.66,231.53Z" transform="translate(-12.22 -50.76)"/><path class="cls-8" d="M694.63,233.7l-11.07,16a83.62,83.62,0,0,1-1.56-16q0-25.47,12.71-42.26t31.95-16.78a33.58,33.58,0,0,1,5.63.41,20.24,20.24,0,0,0,2.17.2h.88c-.05,2-.07,3.43-.07,4.31q0,15.82,9.14,50.94l3.07,11.7c.41,1.64,1.06,4.35,2,8.11L752,261q2,8.43,3.54,16.74l3.53-8.83q5.84-14.69,10.46-26.7l6.65-17.35,5.16-14.38,6.24-17.25q.88-2.36,3.47-9.65l13.15-12.42q-4.35,38.29-4.34,61.5L799,266.25l-.2,12.63q0,16,1.39,21t5.94,5a17.87,17.87,0,0,0,8.63-2.06,5,5,0,0,1,.61,2.16q0,3.39-4.63,5l-3.61,1.33-19.33,6q-.35-9.64-.34-17.76,0-52.38,3.07-93-9.36,20.13-14.11,32.65l-4.08,10.58a380.81,380.81,0,0,0-13.5,42L749,307.12q-1-19.41-10.16-54.53l-2.66-10.37q-.54-1.84-2.45-9A229.23,229.23,0,0,1,728,206.08l-5.54,50.81q-2.41,22.89-5,31.15a27.68,27.68,0,0,1-9.34,13.6l17,1.88-8.61,12.12-29-2.26,8.76-12.73,7.68,1a29.27,29.27,0,0,0,6.38-12.32q1.9-7.29,4.42-29.46l8.15-72.16h-3.2q-28.25,0-28.25,28.23A52.51,52.51,0,0,0,694.63,233.7Z" transform="translate(-12.22 -50.76)"/><path class="cls-8" d="M841.11,231.53,829.4,247a73.53,73.53,0,0,1-1.65-15.37q0-25.56,13.78-41t36.63-15.46h5.68q-3.24,22.69-3.88,30.53l-3.89,48.46-.94,11q-1.21,14.07-4.4,20.31t-12.24,12.2l20.81,1.48-8.61,11.5-35-2.18,9.2-12.29,7.83,1.19q8.76-7.63,10.77-31.22l.79-9.62,5.57-69.38h-2.23q-29.92,0-29.92,27.26A46.81,46.81,0,0,0,841.11,231.53Z" transform="translate(-12.22 -50.76)"/><path class="cls-8" d="M1011.2,273.85a3.57,3.57,0,0,1,1.66,3.17q0,6.54-8.7,17.25-14.71,18.14-33.47,18.13-15.15,0-24.17-15.11t-9-40.59q0-36.37,16.88-60.95t41.88-24.58q12.72,0,26.36,6.64l-4.81,14.57-1.36,4.26c-1.15,3.37-2.57,5.05-4.24,5.05a5.72,5.72,0,0,1-1.51-.29,16.93,16.93,0,0,0,1-5q0-6.62-6.44-11.55a24,24,0,0,0-15-4.93q-17.53,0-28.51,19.11t-11,49.71q0,23.68,7.7,37.74t20.57,14.06q9.27,0,18.51-7.68A45.84,45.84,0,0,0,1011.2,273.85Z" transform="translate(-12.22 -50.76)"/><path class="cls-8" d="M1041.59,231.82l-11.28,15a76.72,76.72,0,0,1-3-20.52q0-24.57,15.45-39.64,12.93-12.69,44.25-12.69,5.31,0,9.34.3,11.13,1,11.42,1h5q-5.6,12.08-5.6,48.92l.07,5.15.29,11.39a249.89,249.89,0,0,0,3.66,42q1.44,8.32,2.81,10.69t4.74,2.38q3.66,0,8.33-3.27a10.37,10.37,0,0,1,.5,2.78q0,2.48-2.8,4.26l-3.38,2.28-17.67,10.6a285.53,285.53,0,0,1-7.11-52.53l-5.46,5.26h-24.13q-6.61,23.19-18.1,33.1l14.86,1-7.75,11.3-28.66-1.39,9.55-11.89,7.18.59q4.89-4.95,8.34-13.91t10.27-34.71l2.15-8.22q6.61-24.86,12.57-36.19a52.83,52.83,0,0,1,16.24-18.67,96.29,96.29,0,0,0-23.78-2.87q-31.82,0-31.82,29.63A51.5,51.5,0,0,0,1041.59,231.82Zm55,22.6q-1-17.22-1-27.91c0-3.63,0-6.59.15-8.9l.57-11.48a174.22,174.22,0,0,1,1.58-18q-14.07,11.88-23.13,48.5-2.58,10.59-3,12.17l-1.65,5.64Z" transform="translate(-12.22 -50.76)"/><path class="cls-8" d="M1182.46,238.46h15.4a96.39,96.39,0,0,0,22.08-2.67q-8.51,14-16,14l-6.13-.19-7-.2-5.55-.2h-3.75l-.51,7.23-.71,8.73q-1.21,14-4.39,20.27t-12.28,12.24l19.82,1.48-8.58,11.5-34-2.18,9.27-12.29,7.75,1.19q8.77-7.63,10.78-31.22l.79-9.72,5.66-70.57h-2.44q-13.93,0-21.87,7.88t-7.94,21.56a47,47,0,0,0,3.3,16.85l-11.63,15.46a72,72,0,0,1-1.66-15.06q0-27.75,16.74-44.9,12.21-12.5,34.7-12.49h23.77a272,272,0,0,0,27.23-1.39l-5.75,20.39-1.15,3.68q-1.8,5.87-4.6,5.86a6.91,6.91,0,0,1-1.07-.09,50.85,50.85,0,0,0,.86-7.93q0-6.54-5-8.18t-25-1.64h-6.91Z" transform="translate(-12.22 -50.76)"/><path class="cls-8" d="M1249.83,232.12l-11.64,15.46a70.88,70.88,0,0,1-1.72-15.06q0-27.75,16.73-44.9,12.21-12.5,34.77-12.49h23.7q13.36,0,27.3-1.39l-5.82,20.39-1.15,3.68q-1.8,5.87-4.6,5.86a6.58,6.58,0,0,1-1-.09,52.7,52.7,0,0,0,.79-7.93q0-6.54-5-8.18t-24.94-1.64h-7l-3.86,48.07h14a131.44,131.44,0,0,0,21.63-1.58q-8.22,13.58-16.58,13.58a124.13,124.13,0,0,1-13.26-1c-2.35-.2-4-.3-5-.3h-1.73l-.69,8.59q-1.5,18.76-4.77,26.66t-12.83,15.89l15.73,1.69,6.41.79q6.76.69,16.19.69,15.9,0,26.48-14.07a6.57,6.57,0,0,1,1.22,3.57q0,2.77-7.68,11.4-11.2,12.58-24.5,12.58-12.28,0-35.34-2.91L1239,306.07c-.91-.07-4.14-.33-9.7-.8l13.14-13.68a170.76,170.76,0,0,0,17.08,3,19.13,19.13,0,0,0,9.48-10.69q2.44-6.93,4.09-27.86l5.64-70.18h-2.51q-13.9,0-21.79,7.88t-7.89,21.76A46.3,46.3,0,0,0,1249.83,232.12Z" transform="translate(-12.22 -50.76)"/></svg>